<svg width="117" height="32" viewBox="0 0 117 32" fill="none" xmlns="http://www.w3.org/2000/svg">
<path fill-rule="evenodd" clip-rule="evenodd" d="M28.0569 14.0306C28.0569 21.7795 21.7761 28.0613 14.0284 28.0613C12.8 28.0613 11.6084 27.9034 10.4729 27.6067L5.01226 31.2849C4.57802 31.5774 3.99759 31.2414 4.03484 30.7191L4.4912 24.3201C1.72878 21.7576 0 18.0961 0 14.0306C0 6.28173 6.28074 0 14.0284 0C21.7761 0 28.0569 6.28173 28.0569 14.0306ZM8.51361 21.2439C7.58241 20.0825 6.27874 17.7894 8.51361 17.9076C9.30245 17.9494 9.92838 18.1393 10.5961 18.3418C12.2913 18.8562 14.2558 19.4521 19.8392 17.9119C19.8492 17.9092 19.8598 17.907 19.8701 17.9058C20.6282 17.8216 21.7931 18.2273 20.501 20.526C18.8749 23.4188 12.0577 25.4881 8.51361 21.2439Z" fill="#467BFF"/>
<path d="M38.7769 14.9562H41.8437C42.4648 14.9562 42.9306 14.808 43.2412 14.5117C43.5518 14.2154 43.707 13.8096 43.707 13.2942C43.707 12.7789 43.5518 12.3731 43.2412 12.0768C42.9306 11.7676 42.4648 11.613 41.8437 11.613H38.7769V14.9562ZM38.7769 17.5457V22.7441H35.9431V9.02344H41.8437C43.4224 9.02344 44.5999 9.41638 45.3763 10.2023C46.1527 10.9881 46.5409 12.0188 46.5409 13.2942C46.5409 14.5568 46.1397 15.581 45.3375 16.3669C44.5481 17.1528 43.3835 17.5457 41.8437 17.5457H38.7769Z" fill="#467BFF"/>
<path d="M53.7581 12.5406V15.1108C53.564 15.0721 53.3829 15.0528 53.2146 15.0528C52.3994 15.0528 51.7848 15.2654 51.3707 15.6905C50.9696 16.1157 50.769 16.7856 50.769 17.7003V22.7441H48.0128V12.6179H50.5555V13.932C51.1378 12.9915 52.0953 12.5213 53.4282 12.5213L53.7581 12.5406Z" fill="#467BFF"/>
<path d="M63.3773 21.4494C62.3939 22.4672 61.1064 22.976 59.5148 22.976C57.9232 22.976 56.6357 22.4672 55.6522 21.4494C54.6688 20.4187 54.1771 19.1626 54.1771 17.681C54.1771 16.1994 54.6688 14.9498 55.6522 13.932C56.6357 12.9013 57.9232 12.386 59.5148 12.386C61.1064 12.386 62.3939 12.9013 63.3773 13.932C64.3608 14.9498 64.8525 16.1994 64.8525 17.681C64.8525 19.1626 64.3608 20.4187 63.3773 21.4494ZM57.6514 15.5746C57.1727 16.0899 56.9333 16.7921 56.9333 17.681C56.9333 18.57 57.1727 19.2721 57.6514 19.7874C58.1432 20.3028 58.7643 20.5604 59.5148 20.5604C60.2653 20.5604 60.8799 20.3028 61.3587 19.7874C61.8504 19.2721 62.0963 18.57 62.0963 17.681C62.0963 16.7921 61.8504 16.0899 61.3587 15.5746C60.8799 15.0593 60.2653 14.8016 59.5148 14.8016C58.7643 14.8016 58.1432 15.0593 57.6514 15.5746Z" fill="#467BFF"/>
<path d="M69.7682 14.9562H72.8349C73.456 14.9562 73.9219 14.808 74.2324 14.5117C74.543 14.2154 74.6982 13.8096 74.6982 13.2942C74.6982 12.7789 74.543 12.3731 74.2324 12.0768C73.9219 11.7676 73.456 11.613 72.8349 11.613H69.7682V14.9562ZM69.7682 17.5457V22.7441H66.9343V9.02344H72.8349C74.4136 9.02344 75.5911 9.41638 76.3675 10.2023C77.1439 10.9881 77.5321 12.0188 77.5321 13.2942C77.5321 14.5568 77.1309 15.581 76.3287 16.3669C75.5393 17.1528 74.3748 17.5457 72.8349 17.5457H69.7682Z" fill="#467BFF"/>
<path d="M87.8315 18.4733H80.4558C80.5464 19.169 80.8052 19.7037 81.2322 20.0773C81.6592 20.438 82.2221 20.6184 82.9209 20.6184C83.3608 20.6184 83.7555 20.5282 84.1049 20.3479C84.4672 20.1546 84.726 19.8776 84.8813 19.5169H87.6569C87.3592 20.5475 86.7705 21.385 85.8906 22.0291C85.0236 22.6604 84.0078 22.976 82.8432 22.976C81.3422 22.976 80.1129 22.48 79.1554 21.488C78.1978 20.496 77.719 19.2206 77.719 17.6617C77.719 16.1543 78.1978 14.8982 79.1554 13.8933C80.1129 12.8884 81.3357 12.386 82.8238 12.386C84.3119 12.386 85.5218 12.8884 86.4535 13.8933C87.3981 14.8853 87.8704 16.1415 87.8704 17.6617L87.8315 18.4733ZM82.8044 14.589C82.1833 14.589 81.6722 14.7629 81.271 15.1108C80.8699 15.4458 80.6111 15.9096 80.4946 16.5022H85.1142C85.0107 15.9224 84.7583 15.4586 84.3572 15.1108C83.9561 14.7629 83.4385 14.589 82.8044 14.589Z" fill="#467BFF"/>
<path d="M99.2045 18.4733H91.8288C91.9193 19.169 92.1781 19.7037 92.6051 20.0773C93.0322 20.438 93.595 20.6184 94.2938 20.6184C94.7337 20.6184 95.1284 20.5282 95.4778 20.3479C95.8401 20.1546 96.0989 19.8776 96.2542 19.5169H99.0298C98.7322 20.5475 98.1434 21.385 97.2635 22.0291C96.3965 22.6604 95.3807 22.976 94.2162 22.976C92.7151 22.976 91.4858 22.48 90.5283 21.488C89.5707 20.496 89.092 19.2206 89.092 17.6617C89.092 16.1543 89.5707 14.8982 90.5283 13.8933C91.4858 12.8884 92.7087 12.386 94.1967 12.386C95.6848 12.386 96.8947 12.8884 97.8264 13.8933C98.771 14.8853 99.2433 16.1415 99.2433 17.6617L99.2045 18.4733ZM94.1773 14.589C93.5562 14.589 93.0451 14.7629 92.644 15.1108C92.2428 15.4458 91.984 15.9096 91.8676 16.5022H96.4871C96.3836 15.9224 96.1313 15.4586 95.7301 15.1108C95.329 14.7629 94.8114 14.589 94.1773 14.589Z" fill="#467BFF"/>
<path d="M106.851 12.5406V15.1108C106.657 15.0721 106.475 15.0528 106.307 15.0528C105.492 15.0528 104.877 15.2654 104.463 15.6905C104.062 16.1157 103.862 16.7856 103.862 17.7003V22.7441H101.105V12.6179H103.648V13.932C104.23 12.9915 105.188 12.5213 106.521 12.5213L106.851 12.5406Z" fill="#467BFF"/>
<path d="M111.862 22.976C109.092 22.976 107.624 21.8037 107.456 19.4589H110.251C110.276 19.8325 110.425 20.1482 110.697 20.4058C110.982 20.6506 111.396 20.773 111.939 20.773C112.457 20.773 112.852 20.6893 113.123 20.5218C113.395 20.3543 113.531 20.1288 113.531 19.8454C113.531 19.5362 113.337 19.3107 112.949 19.169C112.56 19.0144 112.088 18.892 111.532 18.8019C110.988 18.7117 110.438 18.5893 109.882 18.4347C109.325 18.2801 108.853 17.9773 108.465 17.5264C108.077 17.0755 107.883 16.4764 107.883 15.7292C107.883 14.7887 108.258 13.9964 109.008 13.3522C109.759 12.7081 110.742 12.386 111.959 12.386C113.343 12.386 114.372 12.7338 115.045 13.4295C115.718 14.1252 116.08 14.9175 116.132 15.8065H113.473C113.447 15.4586 113.298 15.1688 113.026 14.9369C112.767 14.705 112.405 14.589 111.939 14.589C111.499 14.589 111.156 14.6856 110.911 14.8789C110.665 15.0593 110.542 15.2912 110.542 15.5746C110.542 15.8838 110.736 16.1092 111.124 16.251C111.512 16.3927 111.978 16.5086 112.522 16.5988C113.078 16.6761 113.628 16.7921 114.171 16.9467C114.728 17.1013 115.2 17.4105 115.588 17.8743C115.977 18.3381 116.171 18.9565 116.171 19.7295C116.171 20.6699 115.782 21.4494 115.006 22.0678C114.243 22.6733 113.194 22.976 111.862 22.976Z" fill="#467BFF"/>
</svg>
